%
M48
M72
T01C0.01378
T02C0.05906
T03C0.19685
%
T01
X30193Y27469
X18193Y34469
X25193Y35719
X30193Y35719
X25193Y43219
X19193Y45469
X15193Y45469
X17693Y50719
X47693Y50719
X70193Y45719
X70193Y41969
X88943Y46969
X83943Y53219
X55193Y64719
X55193Y73469
X88943Y78219
X61443Y98219
X81768Y107894
X60193Y115469
X60193Y119469
X35193Y126469
X50193Y109469
X18943Y93219
X121138Y107894
X132240Y99272
X147988Y111083
X167673Y111083
X187358Y111083
X207043Y111083
X226728Y111083
X246413Y111083
X266098Y111083
X285783Y111083
X305469Y111083
X325154Y111083
X344839Y111083
X364524Y111083
X384209Y111083
X403894Y111083
X423579Y111083
X423579Y44154
X403894Y44154
X384209Y44154
X364524Y44154
X344839Y44154
X325154Y44154
X305469Y44154
X285783Y44154
X266098Y44154
X246413Y44154
X226728Y44154
X207043Y44154
X187358Y44154
X167673Y44154
X147988Y44154
X132240Y55965
X132240Y32343
X90193Y27219
X73943Y31969
X21443Y60719
X132240Y122894
T02
X16098Y26437
X122398Y26437
X122398Y128800
X16098Y128800
T03
X101453Y107894
M30
