G75*
%MOIN*%
%OFA0B0*%
%FSLAX25Y25*%
%IPPOS*%
%LPD*%
%AMOC8*
5,1,8,0,0,1.08239X$1,22.5*
%
%ADD10C,0.00300*%
%ADD11R,0.01969X0.04724*%
%ADD12R,0.04724X0.01969*%
%ADD13R,0.03937X0.04331*%
%ADD14R,0.03500X0.02500*%
%ADD15R,0.04134X0.04252*%
%ADD16R,0.05512X0.02953*%
%ADD17R,0.08465X0.07087*%
%ADD18R,0.05000X0.02500*%
%ADD19C,0.05000*%
%ADD20C,0.00800*%
%ADD21C,0.02978*%
%ADD22C,0.00600*%
D10*
X0059949Y0127768D02*
X0059949Y0131768D01*
X0061060Y0131768D01*
X0061060Y0131769D02*
X0061118Y0131767D01*
X0061176Y0131761D01*
X0061233Y0131752D01*
X0061290Y0131739D01*
X0061346Y0131722D01*
X0061400Y0131701D01*
X0061453Y0131677D01*
X0061504Y0131650D01*
X0061554Y0131619D01*
X0061601Y0131585D01*
X0061646Y0131548D01*
X0061689Y0131509D01*
X0061728Y0131466D01*
X0061765Y0131421D01*
X0061799Y0131374D01*
X0061830Y0131325D01*
X0061857Y0131273D01*
X0061881Y0131220D01*
X0061902Y0131166D01*
X0061919Y0131110D01*
X0061932Y0131053D01*
X0061941Y0130996D01*
X0061947Y0130938D01*
X0061949Y0130880D01*
X0061947Y0130822D01*
X0061941Y0130764D01*
X0061932Y0130707D01*
X0061919Y0130650D01*
X0061902Y0130594D01*
X0061881Y0130540D01*
X0061857Y0130487D01*
X0061830Y0130436D01*
X0061799Y0130386D01*
X0061765Y0130339D01*
X0061728Y0130294D01*
X0061689Y0130251D01*
X0061646Y0130212D01*
X0061601Y0130175D01*
X0061554Y0130141D01*
X0061505Y0130110D01*
X0061453Y0130083D01*
X0061400Y0130059D01*
X0061346Y0130038D01*
X0061290Y0130021D01*
X0061233Y0130008D01*
X0061176Y0129999D01*
X0061118Y0129993D01*
X0061060Y0129991D01*
X0059949Y0129991D01*
X0061060Y0129991D02*
X0061126Y0129989D01*
X0061191Y0129983D01*
X0061257Y0129973D01*
X0061321Y0129960D01*
X0061384Y0129943D01*
X0061447Y0129921D01*
X0061508Y0129897D01*
X0061567Y0129868D01*
X0061625Y0129837D01*
X0061681Y0129801D01*
X0061734Y0129763D01*
X0061785Y0129722D01*
X0061834Y0129677D01*
X0061880Y0129630D01*
X0061923Y0129580D01*
X0061963Y0129528D01*
X0061999Y0129473D01*
X0062033Y0129416D01*
X0062063Y0129358D01*
X0062090Y0129298D01*
X0062112Y0129236D01*
X0062132Y0129173D01*
X0062147Y0129109D01*
X0062159Y0129044D01*
X0062167Y0128979D01*
X0062171Y0128913D01*
X0062171Y0128847D01*
X0062167Y0128781D01*
X0062159Y0128716D01*
X0062147Y0128651D01*
X0062132Y0128587D01*
X0062112Y0128524D01*
X0062090Y0128462D01*
X0062063Y0128402D01*
X0062033Y0128344D01*
X0061999Y0128287D01*
X0061963Y0128232D01*
X0061923Y0128180D01*
X0061880Y0128130D01*
X0061834Y0128083D01*
X0061785Y0128038D01*
X0061734Y0127997D01*
X0061681Y0127959D01*
X0061625Y0127923D01*
X0061567Y0127892D01*
X0061508Y0127863D01*
X0061447Y0127839D01*
X0061384Y0127817D01*
X0061321Y0127800D01*
X0061257Y0127787D01*
X0061191Y0127777D01*
X0061126Y0127771D01*
X0061060Y0127769D01*
X0061060Y0127768D02*
X0059949Y0127768D01*
X0064748Y0127768D02*
X0064748Y0129880D01*
X0066081Y0131768D01*
X0064748Y0129880D02*
X0063414Y0131768D01*
X0069997Y0130102D02*
X0071219Y0129435D01*
X0070775Y0127768D02*
X0070693Y0127770D01*
X0070610Y0127775D01*
X0070529Y0127784D01*
X0070447Y0127797D01*
X0070366Y0127813D01*
X0070286Y0127833D01*
X0070207Y0127856D01*
X0070129Y0127882D01*
X0070053Y0127912D01*
X0069977Y0127946D01*
X0069904Y0127982D01*
X0069831Y0128022D01*
X0069761Y0128065D01*
X0069693Y0128111D01*
X0069627Y0128160D01*
X0069563Y0128212D01*
X0069501Y0128266D01*
X0069442Y0128324D01*
X0071219Y0129435D02*
X0071269Y0129404D01*
X0071316Y0129369D01*
X0071361Y0129332D01*
X0071404Y0129291D01*
X0071444Y0129248D01*
X0071480Y0129203D01*
X0071514Y0129155D01*
X0071545Y0129105D01*
X0071572Y0129053D01*
X0071596Y0129000D01*
X0071617Y0128945D01*
X0071634Y0128889D01*
X0071647Y0128832D01*
X0071656Y0128774D01*
X0071662Y0128716D01*
X0071664Y0128657D01*
X0071662Y0128599D01*
X0071656Y0128541D01*
X0071647Y0128484D01*
X0071634Y0128427D01*
X0071617Y0128371D01*
X0071596Y0128317D01*
X0071572Y0128264D01*
X0071545Y0128213D01*
X0071514Y0128163D01*
X0071480Y0128116D01*
X0071443Y0128071D01*
X0071404Y0128028D01*
X0071361Y0127989D01*
X0071316Y0127952D01*
X0071269Y0127918D01*
X0071220Y0127887D01*
X0071168Y0127860D01*
X0071115Y0127836D01*
X0071061Y0127815D01*
X0071005Y0127798D01*
X0070948Y0127785D01*
X0070891Y0127776D01*
X0070833Y0127770D01*
X0070775Y0127768D01*
X0071441Y0131436D02*
X0071379Y0131480D01*
X0071315Y0131522D01*
X0071248Y0131560D01*
X0071181Y0131596D01*
X0071111Y0131628D01*
X0071040Y0131658D01*
X0070968Y0131683D01*
X0070895Y0131706D01*
X0070821Y0131725D01*
X0070746Y0131741D01*
X0070670Y0131753D01*
X0070594Y0131762D01*
X0070518Y0131767D01*
X0070441Y0131769D01*
X0070383Y0131767D01*
X0070325Y0131761D01*
X0070268Y0131752D01*
X0070211Y0131739D01*
X0070155Y0131722D01*
X0070101Y0131701D01*
X0070048Y0131677D01*
X0069997Y0131650D01*
X0069947Y0131619D01*
X0069900Y0131585D01*
X0069855Y0131548D01*
X0069812Y0131509D01*
X0069773Y0131466D01*
X0069736Y0131421D01*
X0069702Y0131374D01*
X0069671Y0131325D01*
X0069644Y0131273D01*
X0069620Y0131220D01*
X0069599Y0131166D01*
X0069582Y0131110D01*
X0069569Y0131053D01*
X0069560Y0130996D01*
X0069554Y0130938D01*
X0069552Y0130880D01*
X0069554Y0130821D01*
X0069560Y0130763D01*
X0069569Y0130705D01*
X0069582Y0130648D01*
X0069599Y0130592D01*
X0069620Y0130537D01*
X0069644Y0130484D01*
X0069671Y0130432D01*
X0069702Y0130382D01*
X0069736Y0130334D01*
X0069772Y0130289D01*
X0069812Y0130246D01*
X0069855Y0130205D01*
X0069900Y0130168D01*
X0069947Y0130133D01*
X0069997Y0130102D01*
X0073319Y0129991D02*
X0074652Y0129991D01*
X0076689Y0129546D02*
X0077800Y0129546D01*
X0078022Y0129546D02*
X0078911Y0127768D01*
X0080672Y0127768D02*
X0080672Y0131768D01*
X0082449Y0131768D01*
X0084018Y0130880D02*
X0084018Y0128657D01*
X0084020Y0128599D01*
X0084026Y0128541D01*
X0084035Y0128484D01*
X0084048Y0128427D01*
X0084065Y0128371D01*
X0084086Y0128317D01*
X0084110Y0128264D01*
X0084137Y0128213D01*
X0084168Y0128163D01*
X0084202Y0128116D01*
X0084239Y0128071D01*
X0084278Y0128028D01*
X0084321Y0127989D01*
X0084366Y0127952D01*
X0084413Y0127918D01*
X0084463Y0127887D01*
X0084514Y0127860D01*
X0084567Y0127836D01*
X0084621Y0127815D01*
X0084677Y0127798D01*
X0084734Y0127785D01*
X0084791Y0127776D01*
X0084849Y0127770D01*
X0084907Y0127768D01*
X0086241Y0127768D01*
X0086241Y0129991D01*
X0085574Y0129991D01*
X0084018Y0130880D02*
X0084020Y0130938D01*
X0084026Y0130996D01*
X0084035Y0131053D01*
X0084048Y0131110D01*
X0084065Y0131166D01*
X0084086Y0131220D01*
X0084110Y0131273D01*
X0084137Y0131324D01*
X0084168Y0131374D01*
X0084202Y0131421D01*
X0084239Y0131466D01*
X0084278Y0131509D01*
X0084321Y0131548D01*
X0084366Y0131585D01*
X0084413Y0131619D01*
X0084462Y0131650D01*
X0084514Y0131677D01*
X0084567Y0131701D01*
X0084621Y0131722D01*
X0084677Y0131739D01*
X0084734Y0131752D01*
X0084791Y0131761D01*
X0084849Y0131767D01*
X0084907Y0131769D01*
X0084907Y0131768D02*
X0086241Y0131768D01*
X0087910Y0131768D02*
X0088799Y0131768D01*
X0088355Y0131768D02*
X0088355Y0127768D01*
X0088799Y0127768D02*
X0087910Y0127768D01*
X0090117Y0127768D02*
X0091451Y0131768D01*
X0092784Y0127768D01*
X0092451Y0128768D02*
X0090451Y0128768D01*
X0096273Y0127768D02*
X0098496Y0127768D01*
X0100366Y0128657D02*
X0102143Y0130880D01*
X0102033Y0131213D02*
X0102012Y0131265D01*
X0101989Y0131317D01*
X0101961Y0131367D01*
X0101931Y0131414D01*
X0101897Y0131460D01*
X0101860Y0131503D01*
X0101820Y0131543D01*
X0101778Y0131580D01*
X0101733Y0131615D01*
X0101686Y0131646D01*
X0101636Y0131674D01*
X0101585Y0131699D01*
X0101533Y0131720D01*
X0101479Y0131737D01*
X0101424Y0131750D01*
X0101368Y0131760D01*
X0101312Y0131766D01*
X0101255Y0131768D01*
X0101198Y0131766D01*
X0101142Y0131760D01*
X0101086Y0131750D01*
X0101031Y0131737D01*
X0100977Y0131720D01*
X0100925Y0131699D01*
X0100874Y0131674D01*
X0100824Y0131646D01*
X0100777Y0131615D01*
X0100732Y0131580D01*
X0100690Y0131543D01*
X0100650Y0131503D01*
X0100613Y0131460D01*
X0100579Y0131414D01*
X0100549Y0131367D01*
X0100521Y0131317D01*
X0100498Y0131265D01*
X0100477Y0131213D01*
X0102032Y0131212D02*
X0102077Y0131116D01*
X0102119Y0131017D01*
X0102158Y0130918D01*
X0102193Y0130817D01*
X0102226Y0130716D01*
X0102255Y0130613D01*
X0102281Y0130509D01*
X0102303Y0130405D01*
X0102322Y0130300D01*
X0102337Y0130194D01*
X0102349Y0130088D01*
X0102358Y0129981D01*
X0102363Y0129875D01*
X0102365Y0129768D01*
X0100144Y0129768D02*
X0100146Y0129875D01*
X0100151Y0129981D01*
X0100160Y0130088D01*
X0100172Y0130194D01*
X0100187Y0130300D01*
X0100206Y0130405D01*
X0100228Y0130509D01*
X0100254Y0130613D01*
X0100283Y0130716D01*
X0100315Y0130817D01*
X0100351Y0130918D01*
X0100390Y0131017D01*
X0100432Y0131116D01*
X0100477Y0131212D01*
X0102365Y0129768D02*
X0102363Y0129661D01*
X0102358Y0129555D01*
X0102349Y0129448D01*
X0102337Y0129342D01*
X0102322Y0129236D01*
X0102303Y0129131D01*
X0102281Y0129027D01*
X0102255Y0128923D01*
X0102226Y0128820D01*
X0102194Y0128719D01*
X0102158Y0128618D01*
X0102119Y0128519D01*
X0102077Y0128420D01*
X0102032Y0128324D01*
X0102033Y0128324D02*
X0102012Y0128272D01*
X0101989Y0128220D01*
X0101961Y0128170D01*
X0101931Y0128123D01*
X0101897Y0128077D01*
X0101860Y0128034D01*
X0101820Y0127994D01*
X0101778Y0127957D01*
X0101733Y0127922D01*
X0101686Y0127891D01*
X0101636Y0127863D01*
X0101585Y0127838D01*
X0101533Y0127817D01*
X0101479Y0127800D01*
X0101424Y0127787D01*
X0101368Y0127777D01*
X0101312Y0127771D01*
X0101255Y0127769D01*
X0101198Y0127771D01*
X0101142Y0127777D01*
X0101086Y0127787D01*
X0101031Y0127800D01*
X0100977Y0127817D01*
X0100925Y0127838D01*
X0100874Y0127863D01*
X0100824Y0127891D01*
X0100777Y0127922D01*
X0100732Y0127957D01*
X0100690Y0127994D01*
X0100650Y0128034D01*
X0100613Y0128077D01*
X0100579Y0128123D01*
X0100549Y0128170D01*
X0100521Y0128220D01*
X0100498Y0128271D01*
X0100477Y0128324D01*
X0098162Y0129991D02*
X0096273Y0127768D01*
X0100477Y0128324D02*
X0100432Y0128420D01*
X0100390Y0128519D01*
X0100351Y0128618D01*
X0100315Y0128719D01*
X0100283Y0128820D01*
X0100254Y0128923D01*
X0100228Y0129027D01*
X0100206Y0129131D01*
X0100187Y0129236D01*
X0100172Y0129342D01*
X0100160Y0129448D01*
X0100151Y0129555D01*
X0100146Y0129661D01*
X0100144Y0129768D01*
X0097496Y0131769D02*
X0097426Y0131767D01*
X0097356Y0131761D01*
X0097286Y0131752D01*
X0097217Y0131738D01*
X0097149Y0131721D01*
X0097082Y0131700D01*
X0097016Y0131676D01*
X0096952Y0131648D01*
X0096889Y0131617D01*
X0096828Y0131582D01*
X0096769Y0131543D01*
X0096712Y0131502D01*
X0096658Y0131458D01*
X0096606Y0131411D01*
X0096556Y0131360D01*
X0096510Y0131308D01*
X0096466Y0131253D01*
X0096426Y0131195D01*
X0096389Y0131136D01*
X0096355Y0131074D01*
X0096324Y0131011D01*
X0096297Y0130946D01*
X0096274Y0130880D01*
X0098163Y0129990D02*
X0098206Y0130034D01*
X0098248Y0130081D01*
X0098286Y0130130D01*
X0098321Y0130181D01*
X0098354Y0130234D01*
X0098383Y0130289D01*
X0098409Y0130345D01*
X0098432Y0130403D01*
X0098451Y0130462D01*
X0098467Y0130522D01*
X0098480Y0130583D01*
X0098489Y0130644D01*
X0098494Y0130706D01*
X0098496Y0130768D01*
X0098494Y0130828D01*
X0098489Y0130889D01*
X0098480Y0130948D01*
X0098467Y0131007D01*
X0098451Y0131066D01*
X0098431Y0131123D01*
X0098408Y0131178D01*
X0098381Y0131233D01*
X0098352Y0131285D01*
X0098319Y0131336D01*
X0098283Y0131385D01*
X0098245Y0131431D01*
X0098203Y0131475D01*
X0098159Y0131517D01*
X0098113Y0131555D01*
X0098064Y0131591D01*
X0098013Y0131624D01*
X0097961Y0131653D01*
X0097906Y0131680D01*
X0097851Y0131703D01*
X0097794Y0131723D01*
X0097735Y0131739D01*
X0097676Y0131752D01*
X0097617Y0131761D01*
X0097556Y0131766D01*
X0097496Y0131768D01*
X0104013Y0127768D02*
X0105902Y0129991D01*
X0105236Y0131769D02*
X0105166Y0131767D01*
X0105096Y0131761D01*
X0105026Y0131752D01*
X0104957Y0131738D01*
X0104889Y0131721D01*
X0104822Y0131700D01*
X0104756Y0131676D01*
X0104692Y0131648D01*
X0104629Y0131617D01*
X0104568Y0131582D01*
X0104509Y0131543D01*
X0104452Y0131502D01*
X0104398Y0131458D01*
X0104346Y0131411D01*
X0104296Y0131360D01*
X0104250Y0131308D01*
X0104206Y0131253D01*
X0104166Y0131195D01*
X0104129Y0131136D01*
X0104095Y0131074D01*
X0104064Y0131011D01*
X0104037Y0130946D01*
X0104014Y0130880D01*
X0105903Y0129990D02*
X0105946Y0130034D01*
X0105988Y0130081D01*
X0106026Y0130130D01*
X0106061Y0130181D01*
X0106094Y0130234D01*
X0106123Y0130289D01*
X0106149Y0130345D01*
X0106172Y0130403D01*
X0106191Y0130462D01*
X0106207Y0130522D01*
X0106220Y0130583D01*
X0106229Y0130644D01*
X0106234Y0130706D01*
X0106236Y0130768D01*
X0106234Y0130828D01*
X0106229Y0130889D01*
X0106220Y0130948D01*
X0106207Y0131007D01*
X0106191Y0131066D01*
X0106171Y0131123D01*
X0106148Y0131178D01*
X0106121Y0131233D01*
X0106092Y0131285D01*
X0106059Y0131336D01*
X0106023Y0131385D01*
X0105985Y0131431D01*
X0105943Y0131475D01*
X0105899Y0131517D01*
X0105853Y0131555D01*
X0105804Y0131591D01*
X0105753Y0131624D01*
X0105701Y0131653D01*
X0105646Y0131680D01*
X0105591Y0131703D01*
X0105534Y0131723D01*
X0105475Y0131739D01*
X0105416Y0131752D01*
X0105357Y0131761D01*
X0105296Y0131766D01*
X0105236Y0131768D01*
X0108994Y0131768D02*
X0109051Y0131766D01*
X0109107Y0131760D01*
X0109163Y0131750D01*
X0109218Y0131737D01*
X0109272Y0131720D01*
X0109324Y0131699D01*
X0109375Y0131674D01*
X0109425Y0131646D01*
X0109472Y0131615D01*
X0109517Y0131580D01*
X0109559Y0131543D01*
X0109599Y0131503D01*
X0109636Y0131460D01*
X0109670Y0131414D01*
X0109700Y0131367D01*
X0109728Y0131317D01*
X0109751Y0131265D01*
X0109772Y0131213D01*
X0109883Y0130880D02*
X0108106Y0128657D01*
X0108994Y0127769D02*
X0109051Y0127771D01*
X0109107Y0127777D01*
X0109163Y0127787D01*
X0109218Y0127800D01*
X0109272Y0127817D01*
X0109324Y0127838D01*
X0109375Y0127863D01*
X0109425Y0127891D01*
X0109472Y0127922D01*
X0109517Y0127957D01*
X0109559Y0127994D01*
X0109599Y0128034D01*
X0109636Y0128077D01*
X0109670Y0128123D01*
X0109700Y0128170D01*
X0109728Y0128220D01*
X0109751Y0128272D01*
X0109772Y0128324D01*
X0108994Y0127769D02*
X0108937Y0127771D01*
X0108881Y0127777D01*
X0108825Y0127787D01*
X0108770Y0127800D01*
X0108716Y0127817D01*
X0108664Y0127838D01*
X0108613Y0127863D01*
X0108563Y0127891D01*
X0108516Y0127922D01*
X0108471Y0127957D01*
X0108429Y0127994D01*
X0108389Y0128034D01*
X0108352Y0128077D01*
X0108318Y0128123D01*
X0108288Y0128170D01*
X0108260Y0128220D01*
X0108237Y0128271D01*
X0108216Y0128324D01*
X0110105Y0129768D02*
X0110103Y0129875D01*
X0110098Y0129981D01*
X0110089Y0130088D01*
X0110077Y0130194D01*
X0110062Y0130300D01*
X0110043Y0130405D01*
X0110021Y0130509D01*
X0109995Y0130613D01*
X0109966Y0130716D01*
X0109933Y0130817D01*
X0109898Y0130918D01*
X0109859Y0131017D01*
X0109817Y0131116D01*
X0109772Y0131212D01*
X0108994Y0131768D02*
X0108937Y0131766D01*
X0108881Y0131760D01*
X0108825Y0131750D01*
X0108770Y0131737D01*
X0108716Y0131720D01*
X0108664Y0131699D01*
X0108613Y0131674D01*
X0108563Y0131646D01*
X0108516Y0131615D01*
X0108471Y0131580D01*
X0108429Y0131543D01*
X0108389Y0131503D01*
X0108352Y0131460D01*
X0108318Y0131414D01*
X0108288Y0131367D01*
X0108260Y0131317D01*
X0108237Y0131265D01*
X0108216Y0131213D01*
X0110105Y0129768D02*
X0110103Y0129661D01*
X0110098Y0129555D01*
X0110089Y0129448D01*
X0110077Y0129342D01*
X0110062Y0129236D01*
X0110043Y0129131D01*
X0110021Y0129027D01*
X0109995Y0128923D01*
X0109966Y0128820D01*
X0109934Y0128719D01*
X0109898Y0128618D01*
X0109859Y0128519D01*
X0109817Y0128420D01*
X0109772Y0128324D01*
X0107884Y0129768D02*
X0107886Y0129875D01*
X0107891Y0129981D01*
X0107900Y0130088D01*
X0107912Y0130194D01*
X0107927Y0130300D01*
X0107946Y0130405D01*
X0107968Y0130509D01*
X0107994Y0130613D01*
X0108023Y0130716D01*
X0108055Y0130817D01*
X0108091Y0130918D01*
X0108130Y0131017D01*
X0108172Y0131116D01*
X0108217Y0131212D01*
X0107884Y0129768D02*
X0107886Y0129661D01*
X0107891Y0129555D01*
X0107900Y0129448D01*
X0107912Y0129342D01*
X0107927Y0129236D01*
X0107946Y0129131D01*
X0107968Y0129027D01*
X0107994Y0128923D01*
X0108023Y0128820D01*
X0108055Y0128719D01*
X0108091Y0128618D01*
X0108130Y0128519D01*
X0108172Y0128420D01*
X0108217Y0128324D01*
X0106236Y0127768D02*
X0104013Y0127768D01*
X0082449Y0127768D02*
X0080672Y0127768D01*
X0080672Y0129991D02*
X0082005Y0129991D01*
X0077800Y0129546D02*
X0077866Y0129548D01*
X0077931Y0129554D01*
X0077997Y0129564D01*
X0078061Y0129577D01*
X0078124Y0129594D01*
X0078187Y0129616D01*
X0078248Y0129640D01*
X0078307Y0129669D01*
X0078365Y0129700D01*
X0078421Y0129736D01*
X0078474Y0129774D01*
X0078525Y0129815D01*
X0078574Y0129860D01*
X0078620Y0129907D01*
X0078663Y0129957D01*
X0078703Y0130009D01*
X0078739Y0130064D01*
X0078773Y0130121D01*
X0078803Y0130179D01*
X0078830Y0130239D01*
X0078852Y0130301D01*
X0078872Y0130364D01*
X0078887Y0130428D01*
X0078899Y0130493D01*
X0078907Y0130558D01*
X0078911Y0130624D01*
X0078911Y0130690D01*
X0078907Y0130756D01*
X0078899Y0130821D01*
X0078887Y0130886D01*
X0078872Y0130950D01*
X0078852Y0131013D01*
X0078830Y0131075D01*
X0078803Y0131135D01*
X0078773Y0131193D01*
X0078739Y0131250D01*
X0078703Y0131305D01*
X0078663Y0131357D01*
X0078620Y0131407D01*
X0078574Y0131454D01*
X0078525Y0131499D01*
X0078474Y0131540D01*
X0078421Y0131578D01*
X0078365Y0131614D01*
X0078307Y0131645D01*
X0078248Y0131674D01*
X0078187Y0131698D01*
X0078124Y0131720D01*
X0078061Y0131737D01*
X0077997Y0131750D01*
X0077931Y0131760D01*
X0077866Y0131766D01*
X0077800Y0131768D01*
X0076689Y0131768D01*
X0076689Y0127768D01*
X0075096Y0127768D02*
X0073319Y0127768D01*
X0073319Y0131768D01*
X0075096Y0131768D01*
D11*
X0058087Y0098760D03*
X0055134Y0098760D03*
X0052181Y0098760D03*
X0049228Y0098760D03*
X0046276Y0098760D03*
X0043323Y0098760D03*
X0040370Y0098760D03*
X0037417Y0098760D03*
X0034465Y0098760D03*
X0031512Y0098760D03*
X0028559Y0098760D03*
X0025606Y0098760D03*
X0022654Y0098760D03*
X0019701Y0098760D03*
X0016748Y0098760D03*
X0013795Y0098760D03*
X0025606Y0060177D03*
X0028559Y0060177D03*
X0031512Y0060177D03*
X0034465Y0060177D03*
X0037417Y0060177D03*
X0040370Y0060177D03*
X0043323Y0060177D03*
X0046276Y0060177D03*
X0049228Y0060177D03*
X0052181Y0060177D03*
X0055134Y0060177D03*
X0058087Y0060177D03*
D12*
X0060252Y0064705D03*
X0060252Y0067658D03*
X0060252Y0070611D03*
X0060252Y0073563D03*
X0060252Y0076516D03*
X0060252Y0079469D03*
X0060252Y0082422D03*
X0060252Y0085374D03*
X0060252Y0088327D03*
X0060252Y0091280D03*
X0060252Y0094233D03*
D13*
X0112346Y0088219D03*
X0119039Y0088219D03*
X0119039Y0083219D03*
X0112346Y0083219D03*
X0112346Y0078219D03*
X0119039Y0078219D03*
X0119039Y0073219D03*
X0112346Y0073219D03*
X0112346Y0068219D03*
X0119039Y0068219D03*
X0119039Y0063219D03*
X0112346Y0063219D03*
X0112346Y0058219D03*
X0119039Y0058219D03*
X0119039Y0053219D03*
X0112346Y0053219D03*
X0106039Y0039469D03*
X0099346Y0039469D03*
X0063539Y0039469D03*
X0056846Y0039469D03*
X0056846Y0046969D03*
X0063539Y0046969D03*
X0020539Y0056469D03*
X0013846Y0056469D03*
X0056846Y0031969D03*
X0063539Y0031969D03*
D14*
X0020636Y0037599D03*
X0014750Y0037599D03*
X0014750Y0041339D03*
X0020636Y0041339D03*
D15*
X0079248Y0031969D03*
X0086138Y0031969D03*
X0079888Y0123219D03*
X0072998Y0123219D03*
D16*
X0076699Y0088445D03*
X0076699Y0083445D03*
X0076699Y0078445D03*
X0076699Y0073445D03*
X0076699Y0068445D03*
X0076699Y0063445D03*
X0076699Y0058445D03*
X0076699Y0053445D03*
X0106620Y0053445D03*
X0106620Y0058445D03*
X0106620Y0063445D03*
X0106620Y0068445D03*
X0106620Y0073445D03*
X0106620Y0078445D03*
X0106620Y0083445D03*
X0106620Y0088445D03*
D17*
X0088500Y0039469D03*
X0076886Y0039469D03*
D18*
X0047703Y0032225D03*
X0025262Y0032225D03*
X0025262Y0046792D03*
X0047703Y0046792D03*
D19*
X0136177Y0044154D03*
X0136177Y0111083D03*
X0050193Y0116969D03*
X0040193Y0116969D03*
X0030193Y0116969D03*
X0020193Y0116969D03*
D20*
X0020193Y0121469D01*
X0025193Y0126469D01*
X0035193Y0126469D01*
X0028943Y0123219D02*
X0072998Y0123219D01*
X0079888Y0123219D02*
X0083443Y0123219D01*
X0085193Y0121469D01*
X0130815Y0121469D01*
X0132240Y0122894D01*
X0132240Y0123219D01*
X0121138Y0107894D02*
X0121138Y0105719D01*
X0119443Y0103719D01*
X0119443Y0088219D01*
X0119039Y0088219D01*
X0119039Y0083219D01*
X0119039Y0078219D01*
X0119039Y0073219D01*
X0119039Y0068219D01*
X0119039Y0063219D01*
X0119039Y0058219D01*
X0119039Y0053219D01*
X0119039Y0050315D01*
X0114443Y0045719D01*
X0106443Y0045719D01*
X0102443Y0045719D01*
X0094943Y0053219D01*
X0094943Y0090719D01*
X0081768Y0103894D01*
X0081768Y0107894D01*
X0063943Y0113219D02*
X0063943Y0117719D01*
X0062193Y0119469D01*
X0060193Y0119469D01*
X0050193Y0116969D02*
X0050193Y0109469D01*
X0055134Y0110410D02*
X0055134Y0098760D01*
X0058087Y0098760D02*
X0061443Y0098760D01*
X0061443Y0098219D01*
X0063943Y0113219D02*
X0088943Y0088219D01*
X0088943Y0078219D01*
X0076699Y0078445D02*
X0076699Y0073445D01*
X0076699Y0073219D01*
X0072693Y0073219D01*
X0067693Y0078219D01*
X0063490Y0082422D01*
X0060252Y0082422D01*
X0060252Y0079469D02*
X0063943Y0079469D01*
X0071443Y0071969D01*
X0071443Y0069469D01*
X0072693Y0068219D01*
X0076699Y0068219D01*
X0076699Y0068445D01*
X0076699Y0063445D01*
X0076699Y0058445D01*
X0076699Y0053445D01*
X0073943Y0049469D02*
X0066443Y0056969D01*
X0066443Y0074469D01*
X0064396Y0076516D01*
X0060252Y0076516D01*
X0060252Y0073563D02*
X0055193Y0073563D01*
X0055193Y0073469D01*
X0055193Y0070611D01*
X0060252Y0070611D01*
X0060252Y0067658D02*
X0018382Y0067658D01*
X0013846Y0063122D01*
X0013846Y0056469D01*
X0018193Y0058815D02*
X0020539Y0056469D01*
X0025443Y0055719D02*
X0020443Y0050719D01*
X0017693Y0050719D01*
X0019193Y0047469D02*
X0024943Y0053219D01*
X0045443Y0053219D01*
X0049228Y0057004D01*
X0049228Y0060177D01*
X0046276Y0060177D02*
X0046276Y0063386D01*
X0044193Y0065469D01*
X0020193Y0065469D01*
X0018193Y0063469D01*
X0018193Y0058815D01*
X0021443Y0060719D02*
X0025606Y0060719D01*
X0025606Y0060177D01*
X0028559Y0060177D02*
X0028559Y0056585D01*
X0027693Y0055719D01*
X0025443Y0055719D01*
X0047693Y0050719D02*
X0047693Y0046802D01*
X0047703Y0046792D01*
X0047693Y0040719D02*
X0053943Y0046969D01*
X0056846Y0046969D01*
X0063539Y0046969D02*
X0063539Y0049872D01*
X0060193Y0053219D01*
X0055193Y0053219D01*
X0052181Y0056231D01*
X0052181Y0060177D01*
X0055134Y0060177D02*
X0055193Y0060118D01*
X0055193Y0056969D01*
X0056443Y0055719D01*
X0060193Y0055719D01*
X0067693Y0048219D01*
X0067693Y0040719D01*
X0066443Y0039469D01*
X0063539Y0039469D01*
X0056846Y0039469D02*
X0050693Y0039469D01*
X0049443Y0038219D01*
X0020636Y0038219D01*
X0020636Y0037599D01*
X0025193Y0035719D02*
X0025262Y0035650D01*
X0025262Y0032225D01*
X0030193Y0035719D02*
X0033687Y0032225D01*
X0047703Y0032225D01*
X0047703Y0033979D01*
X0049443Y0035719D01*
X0066443Y0035719D01*
X0070193Y0039469D01*
X0070193Y0041969D01*
X0070193Y0039469D02*
X0076886Y0039469D01*
X0079248Y0039469D01*
X0079248Y0031969D01*
X0086138Y0031969D02*
X0088693Y0031969D01*
X0090193Y0030469D01*
X0090193Y0027219D01*
X0086138Y0031969D02*
X0086138Y0039469D01*
X0088500Y0039469D01*
X0088500Y0043662D01*
X0087068Y0045094D01*
X0088943Y0046969D01*
X0087068Y0045094D02*
X0085193Y0046969D01*
X0073943Y0046969D01*
X0063943Y0056969D01*
X0063943Y0066969D01*
X0063254Y0067658D01*
X0060252Y0067658D01*
X0060252Y0064705D02*
X0055193Y0064705D01*
X0055193Y0064719D01*
X0058087Y0060177D02*
X0058234Y0060177D01*
X0070193Y0048219D01*
X0070193Y0045719D01*
X0073943Y0049469D02*
X0092693Y0049469D01*
X0099346Y0042815D01*
X0099346Y0039469D01*
X0099346Y0035315D01*
X0101193Y0033469D01*
X0131114Y0033469D01*
X0132240Y0032343D01*
X0106443Y0039469D02*
X0106443Y0045719D01*
X0106443Y0039469D02*
X0106039Y0039469D01*
X0135242Y0043219D02*
X0136177Y0044154D01*
X0112346Y0053219D02*
X0112346Y0053445D01*
X0106620Y0053445D01*
X0112346Y0058219D02*
X0112346Y0058445D01*
X0106620Y0058445D01*
X0106620Y0063445D02*
X0112346Y0063445D01*
X0112346Y0063219D01*
X0112346Y0068219D02*
X0112346Y0068445D01*
X0106620Y0068445D01*
X0112346Y0073219D02*
X0112346Y0073445D01*
X0106620Y0073445D01*
X0106620Y0078445D02*
X0112346Y0078445D01*
X0112346Y0078219D01*
X0112346Y0083219D02*
X0112346Y0083445D01*
X0106620Y0083445D01*
X0106620Y0088445D02*
X0112346Y0088445D01*
X0112346Y0088219D01*
X0076699Y0088445D02*
X0076699Y0083445D01*
X0076699Y0078445D01*
X0018943Y0093219D02*
X0016443Y0093219D01*
X0013795Y0095866D01*
X0013795Y0098760D01*
X0022654Y0098760D02*
X0022654Y0103679D01*
X0025193Y0106219D01*
X0025193Y0119469D01*
X0028943Y0123219D01*
X0030193Y0116969D02*
X0030193Y0107305D01*
X0025606Y0102719D01*
X0025606Y0098760D01*
X0028559Y0098760D02*
X0028559Y0101835D01*
X0039193Y0112469D01*
X0040193Y0113469D01*
X0040193Y0116969D01*
X0055134Y0110410D02*
X0060193Y0115469D01*
X0083943Y0053219D02*
X0094943Y0053219D01*
X0047693Y0040719D02*
X0020636Y0040719D01*
X0020636Y0041339D01*
X0025193Y0043219D02*
X0025193Y0046723D01*
X0025262Y0046792D01*
X0019193Y0047469D02*
X0019193Y0045469D01*
X0015193Y0045469D02*
X0014750Y0045026D01*
X0014750Y0041339D01*
X0014750Y0037599D02*
X0014750Y0035912D01*
X0016193Y0034469D01*
X0018193Y0034469D01*
X0030193Y0027469D02*
X0050193Y0027469D01*
X0053193Y0030469D01*
X0054693Y0031969D01*
X0056846Y0031969D01*
X0063539Y0031969D02*
X0073943Y0031969D01*
D21*
X0030193Y0027469D03*
X0018193Y0034469D03*
X0025193Y0035719D03*
X0030193Y0035719D03*
X0025193Y0043219D03*
X0019193Y0045469D03*
X0015193Y0045469D03*
X0017693Y0050719D03*
X0047693Y0050719D03*
X0070193Y0045719D03*
X0070193Y0041969D03*
X0088943Y0046969D03*
X0083943Y0053219D03*
X0055193Y0064719D03*
X0055193Y0073469D03*
X0088943Y0078219D03*
X0061443Y0098219D03*
X0081768Y0107894D03*
X0060193Y0115469D03*
X0060193Y0119469D03*
X0035193Y0126469D03*
X0050193Y0109469D03*
X0018943Y0093219D03*
X0121138Y0107894D03*
X0132240Y0099272D03*
X0147988Y0111083D03*
X0167673Y0111083D03*
X0187358Y0111083D03*
X0207043Y0111083D03*
X0226728Y0111083D03*
X0246413Y0111083D03*
X0266098Y0111083D03*
X0285783Y0111083D03*
X0305469Y0111083D03*
X0325154Y0111083D03*
X0344839Y0111083D03*
X0364524Y0111083D03*
X0384209Y0111083D03*
X0403894Y0111083D03*
X0423579Y0111083D03*
X0423579Y0044154D03*
X0403894Y0044154D03*
X0384209Y0044154D03*
X0364524Y0044154D03*
X0344839Y0044154D03*
X0325154Y0044154D03*
X0305469Y0044154D03*
X0285783Y0044154D03*
X0266098Y0044154D03*
X0246413Y0044154D03*
X0226728Y0044154D03*
X0207043Y0044154D03*
X0187358Y0044154D03*
X0167673Y0044154D03*
X0147988Y0044154D03*
X0132240Y0055965D03*
X0132240Y0032343D03*
X0090193Y0027219D03*
X0073943Y0031969D03*
X0021443Y0060719D03*
X0132240Y0122894D03*
D22*
X0128303Y0122625D02*
X0413386Y0122625D01*
X0414343Y0122026D02*
X0128303Y0122026D01*
X0128303Y0121428D02*
X0415301Y0121428D01*
X0416259Y0120829D02*
X0128303Y0120829D01*
X0128303Y0120231D02*
X0417216Y0120231D01*
X0418174Y0119632D02*
X0128303Y0119632D01*
X0128303Y0119034D02*
X0419131Y0119034D01*
X0420089Y0118435D02*
X0128303Y0118435D01*
X0128303Y0117837D02*
X0421047Y0117837D01*
X0422004Y0117238D02*
X0128303Y0117238D01*
X0128303Y0116640D02*
X0422962Y0116640D01*
X0423919Y0116041D02*
X0128303Y0116041D01*
X0128303Y0115443D02*
X0424877Y0115443D01*
X0425835Y0114844D02*
X0136747Y0114844D01*
X0136551Y0114883D02*
X0136477Y0114883D01*
X0136477Y0111383D01*
X0135877Y0111383D01*
X0135877Y0110783D01*
X0132377Y0110783D01*
X0132377Y0110709D01*
X0132523Y0109975D01*
X0132810Y0109283D01*
X0133226Y0108661D01*
X0133755Y0108131D01*
X0134377Y0107715D01*
X0135069Y0107429D01*
X0135803Y0107283D01*
X0135877Y0107283D01*
X0135877Y0110783D01*
X0136477Y0110783D01*
X0136477Y0107283D01*
X0136551Y0107283D01*
X0137286Y0107429D01*
X0137977Y0107715D01*
X0138600Y0108131D01*
X0139129Y0108661D01*
X0139545Y0109283D01*
X0139831Y0109975D01*
X0139977Y0110709D01*
X0139977Y0110783D01*
X0136477Y0110783D01*
X0136477Y0111383D01*
X0139977Y0111383D01*
X0139977Y0111457D01*
X0139831Y0112191D01*
X0139545Y0112883D01*
X0139129Y0113505D01*
X0138600Y0114035D01*
X0137977Y0114451D01*
X0137286Y0114737D01*
X0136551Y0114883D01*
X0136477Y0114844D02*
X0135877Y0114844D01*
X0135877Y0114883D02*
X0135803Y0114883D01*
X0135069Y0114737D01*
X0134377Y0114451D01*
X0133755Y0114035D01*
X0133226Y0113505D01*
X0132810Y0112883D01*
X0132523Y0112191D01*
X0132377Y0111457D01*
X0132377Y0111383D01*
X0135877Y0111383D01*
X0135877Y0114883D01*
X0135607Y0114844D02*
X0128303Y0114844D01*
X0128303Y0114246D02*
X0134070Y0114246D01*
X0133367Y0113647D02*
X0128303Y0113647D01*
X0128303Y0113048D02*
X0132920Y0113048D01*
X0132630Y0112450D02*
X0128303Y0112450D01*
X0128303Y0111851D02*
X0132456Y0111851D01*
X0132388Y0110654D02*
X0128303Y0110654D01*
X0128303Y0110056D02*
X0132507Y0110056D01*
X0132737Y0109457D02*
X0128303Y0109457D01*
X0128303Y0108859D02*
X0133093Y0108859D01*
X0133626Y0108260D02*
X0128303Y0108260D01*
X0128303Y0107662D02*
X0134507Y0107662D01*
X0135877Y0107662D02*
X0136477Y0107662D01*
X0136477Y0108260D02*
X0135877Y0108260D01*
X0135877Y0108859D02*
X0136477Y0108859D01*
X0136477Y0109457D02*
X0135877Y0109457D01*
X0135877Y0110056D02*
X0136477Y0110056D01*
X0136477Y0110654D02*
X0135877Y0110654D01*
X0135877Y0111253D02*
X0128303Y0111253D01*
X0135877Y0111851D02*
X0136477Y0111851D01*
X0136477Y0111253D02*
X0431580Y0111253D01*
X0431852Y0111083D02*
X0403356Y0093273D01*
X0128303Y0093273D01*
X0128303Y0128893D01*
X0403356Y0128893D01*
X0431852Y0111083D01*
X0431167Y0110654D02*
X0139966Y0110654D01*
X0139847Y0110056D02*
X0430209Y0110056D01*
X0429252Y0109457D02*
X0139617Y0109457D01*
X0139261Y0108859D02*
X0428294Y0108859D01*
X0427336Y0108260D02*
X0138729Y0108260D01*
X0137848Y0107662D02*
X0426379Y0107662D01*
X0425421Y0107063D02*
X0128303Y0107063D01*
X0128303Y0106465D02*
X0424463Y0106465D01*
X0423506Y0105866D02*
X0128303Y0105866D01*
X0128303Y0105268D02*
X0422548Y0105268D01*
X0421591Y0104669D02*
X0128303Y0104669D01*
X0128303Y0104071D02*
X0420633Y0104071D01*
X0419675Y0103472D02*
X0128303Y0103472D01*
X0128303Y0102874D02*
X0418718Y0102874D01*
X0417760Y0102275D02*
X0128303Y0102275D01*
X0128303Y0101677D02*
X0416802Y0101677D01*
X0415845Y0101078D02*
X0128303Y0101078D01*
X0128303Y0100480D02*
X0414887Y0100480D01*
X0413930Y0099881D02*
X0128303Y0099881D01*
X0128303Y0099283D02*
X0412972Y0099283D01*
X0412014Y0098684D02*
X0128303Y0098684D01*
X0128303Y0098086D02*
X0411057Y0098086D01*
X0410099Y0097487D02*
X0128303Y0097487D01*
X0128303Y0096889D02*
X0409142Y0096889D01*
X0408184Y0096290D02*
X0128303Y0096290D01*
X0128303Y0095692D02*
X0407226Y0095692D01*
X0406269Y0095093D02*
X0128303Y0095093D01*
X0128303Y0094495D02*
X0405311Y0094495D01*
X0404353Y0093896D02*
X0128303Y0093896D01*
X0128303Y0093298D02*
X0403396Y0093298D01*
X0429665Y0112450D02*
X0139724Y0112450D01*
X0139899Y0111851D02*
X0430623Y0111851D01*
X0428708Y0113048D02*
X0139434Y0113048D01*
X0138987Y0113647D02*
X0427750Y0113647D01*
X0426792Y0114246D02*
X0138284Y0114246D01*
X0136477Y0114246D02*
X0135877Y0114246D01*
X0135877Y0113647D02*
X0136477Y0113647D01*
X0136477Y0113048D02*
X0135877Y0113048D01*
X0135877Y0112450D02*
X0136477Y0112450D01*
X0128303Y0123223D02*
X0412428Y0123223D01*
X0411470Y0123822D02*
X0128303Y0123822D01*
X0128303Y0124420D02*
X0410513Y0124420D01*
X0409555Y0125019D02*
X0128303Y0125019D01*
X0128303Y0125617D02*
X0408598Y0125617D01*
X0407640Y0126216D02*
X0128303Y0126216D01*
X0128303Y0126814D02*
X0406682Y0126814D01*
X0405725Y0127413D02*
X0128303Y0127413D01*
X0128303Y0128011D02*
X0404767Y0128011D01*
X0403810Y0128610D02*
X0128303Y0128610D01*
X0128303Y0061964D02*
X0403356Y0061964D01*
X0431852Y0044154D01*
X0403356Y0026344D01*
X0128303Y0026344D01*
X0128303Y0061964D01*
X0128303Y0061577D02*
X0403976Y0061577D01*
X0404934Y0060978D02*
X0128303Y0060978D01*
X0128303Y0060380D02*
X0405891Y0060380D01*
X0406849Y0059781D02*
X0128303Y0059781D01*
X0128303Y0059182D02*
X0407807Y0059182D01*
X0408764Y0058584D02*
X0128303Y0058584D01*
X0128303Y0057985D02*
X0409722Y0057985D01*
X0410679Y0057387D02*
X0128303Y0057387D01*
X0128303Y0056788D02*
X0411637Y0056788D01*
X0412595Y0056190D02*
X0128303Y0056190D01*
X0128303Y0055591D02*
X0413552Y0055591D01*
X0414510Y0054993D02*
X0128303Y0054993D01*
X0128303Y0054394D02*
X0415468Y0054394D01*
X0416425Y0053796D02*
X0128303Y0053796D01*
X0128303Y0053197D02*
X0417383Y0053197D01*
X0418340Y0052599D02*
X0128303Y0052599D01*
X0128303Y0052000D02*
X0419298Y0052000D01*
X0420256Y0051402D02*
X0128303Y0051402D01*
X0128303Y0050803D02*
X0421213Y0050803D01*
X0422171Y0050205D02*
X0128303Y0050205D01*
X0128303Y0049606D02*
X0423128Y0049606D01*
X0424086Y0049008D02*
X0128303Y0049008D01*
X0128303Y0048409D02*
X0425044Y0048409D01*
X0426001Y0047811D02*
X0137271Y0047811D01*
X0137286Y0047808D02*
X0136551Y0047954D01*
X0136477Y0047954D01*
X0136477Y0044454D01*
X0135877Y0044454D01*
X0135877Y0043854D01*
X0132377Y0043854D01*
X0132377Y0043780D01*
X0132523Y0043045D01*
X0132810Y0042354D01*
X0133226Y0041731D01*
X0133755Y0041202D01*
X0134377Y0040786D01*
X0135069Y0040500D01*
X0135803Y0040354D01*
X0135877Y0040354D01*
X0135877Y0043854D01*
X0136477Y0043854D01*
X0136477Y0044454D01*
X0139977Y0044454D01*
X0139977Y0044528D01*
X0139831Y0045262D01*
X0139545Y0045954D01*
X0139129Y0046576D01*
X0138600Y0047106D01*
X0137977Y0047521D01*
X0137286Y0047808D01*
X0136477Y0047811D02*
X0135877Y0047811D01*
X0135877Y0047954D02*
X0135803Y0047954D01*
X0135069Y0047808D01*
X0134377Y0047521D01*
X0133755Y0047106D01*
X0133226Y0046576D01*
X0132810Y0045954D01*
X0132523Y0045262D01*
X0132377Y0044528D01*
X0132377Y0044454D01*
X0135877Y0044454D01*
X0135877Y0047954D01*
X0135877Y0047212D02*
X0136477Y0047212D01*
X0136477Y0046614D02*
X0135877Y0046614D01*
X0135877Y0046015D02*
X0136477Y0046015D01*
X0136477Y0045417D02*
X0135877Y0045417D01*
X0135877Y0044818D02*
X0136477Y0044818D01*
X0136477Y0044220D02*
X0431747Y0044220D01*
X0431000Y0043621D02*
X0139946Y0043621D01*
X0139977Y0043780D02*
X0139977Y0043854D01*
X0136477Y0043854D01*
X0136477Y0040354D01*
X0136551Y0040354D01*
X0137286Y0040500D01*
X0137977Y0040786D01*
X0138600Y0041202D01*
X0139129Y0041731D01*
X0139545Y0042354D01*
X0139831Y0043045D01*
X0139977Y0043780D01*
X0139822Y0043023D02*
X0430043Y0043023D01*
X0429085Y0042424D02*
X0139574Y0042424D01*
X0139192Y0041826D02*
X0428127Y0041826D01*
X0427170Y0041227D02*
X0138624Y0041227D01*
X0137596Y0040629D02*
X0426212Y0040629D01*
X0425254Y0040030D02*
X0128303Y0040030D01*
X0128303Y0039432D02*
X0424297Y0039432D01*
X0423339Y0038833D02*
X0128303Y0038833D01*
X0128303Y0038235D02*
X0422382Y0038235D01*
X0421424Y0037636D02*
X0128303Y0037636D01*
X0128303Y0037038D02*
X0420466Y0037038D01*
X0419509Y0036439D02*
X0128303Y0036439D01*
X0128303Y0035841D02*
X0418551Y0035841D01*
X0417593Y0035242D02*
X0128303Y0035242D01*
X0128303Y0034644D02*
X0416636Y0034644D01*
X0415678Y0034045D02*
X0128303Y0034045D01*
X0128303Y0033446D02*
X0414721Y0033446D01*
X0413763Y0032848D02*
X0128303Y0032848D01*
X0128303Y0032249D02*
X0412805Y0032249D01*
X0411848Y0031651D02*
X0128303Y0031651D01*
X0128303Y0031052D02*
X0410890Y0031052D01*
X0409933Y0030454D02*
X0128303Y0030454D01*
X0128303Y0029855D02*
X0408975Y0029855D01*
X0408017Y0029257D02*
X0128303Y0029257D01*
X0128303Y0028658D02*
X0407060Y0028658D01*
X0406102Y0028060D02*
X0128303Y0028060D01*
X0128303Y0027461D02*
X0405144Y0027461D01*
X0404187Y0026863D02*
X0128303Y0026863D01*
X0128303Y0040629D02*
X0134758Y0040629D01*
X0135877Y0040629D02*
X0136477Y0040629D01*
X0136477Y0041227D02*
X0135877Y0041227D01*
X0135877Y0041826D02*
X0136477Y0041826D01*
X0136477Y0042424D02*
X0135877Y0042424D01*
X0135877Y0043023D02*
X0136477Y0043023D01*
X0136477Y0043621D02*
X0135877Y0043621D01*
X0135877Y0044220D02*
X0128303Y0044220D01*
X0128303Y0044818D02*
X0132435Y0044818D01*
X0132587Y0045417D02*
X0128303Y0045417D01*
X0128303Y0046015D02*
X0132851Y0046015D01*
X0133263Y0046614D02*
X0128303Y0046614D01*
X0128303Y0047212D02*
X0133915Y0047212D01*
X0135084Y0047811D02*
X0128303Y0047811D01*
X0138440Y0047212D02*
X0426959Y0047212D01*
X0427917Y0046614D02*
X0139091Y0046614D01*
X0139504Y0046015D02*
X0428874Y0046015D01*
X0429832Y0045417D02*
X0139767Y0045417D01*
X0139919Y0044818D02*
X0430789Y0044818D01*
X0133730Y0041227D02*
X0128303Y0041227D01*
X0128303Y0041826D02*
X0133163Y0041826D01*
X0132781Y0042424D02*
X0128303Y0042424D01*
X0128303Y0043023D02*
X0132533Y0043023D01*
X0132409Y0043621D02*
X0128303Y0043621D01*
M02*
